{"title":"Tom Sawyer 2000 ENG DVDRIP","uid":13088841,"size":1113183629,"categoryP":"video","categoryS":"movies","magnet":"?xt=urn:btih:a74b37e5edc8eff94bcec853f4d4543982c70d58&amp;dn=Tom+Sawyer+2000+ENG+DVDRIP&amp;tr=udp%3A%2F%2Ftracker.leechers-paradise.org%3A6969&amp;tr=udp%3A%2F%2Fzer0day.ch%3A1337&amp;tr=udp%3A%2F%2Fopen.demonii.com%3A1337&amp;tr=udp%3A%2F%2Ftracker.coppersurfer.tk%3A6969&amp;tr=udp%3A%2F%2Fexodus.desync.com%3A6969","seeders":0,"leechers":1,"uploader":null,"files":1,"time":1450996842,"description":"General\r\nComplete name                            : Tom Sawyer 2000 ENG DVDRIP.MP4\r\nFormat                                   : MPEG-4\r\nFormat profile                           : Base Media / Version 2\r\nCodec ID                                 : mp42 (isom/iso2/avc1/mp41)\r\nFile size                                : 1.04 GiB\r\nDuration                                 : 1h 28mn\r\nOverall bit rate mode                    : Variable\r\nOverall bit rate                         : 1 672 Kbps\r\nMovie name                               : TOM SAWYER\r\nEncoded date                             : UTC 2036-02-06 06:28:16\r\nTagged date                              : UTC 2036-02-06 06:28:16\r\nWriting application                      : HandBrake 0.10.2 \r\n\r\nVideo\r\nID                                       : 1\r\nFormat                                   : AVC\r\nFormat/Info                              : Advanced Video Codec\r\nFormat profile                           :   \r\nFormat settings, CABAC                   : Yes\r\nFormat settings, ReFrames                : 4 frames\r\nCodec ID                                 : avc1\r\nCodec ID/Info                            : Advanced Video Coding\r\nDuration                                 : 1h 28mn\r\nBit rate                                 : 1 500 Kbps\r\nWidth                                    : 716 pixels\r\nHeight                                   : 480 pixels\r\nDisplay aspect ratio                     : 4:3\r\nFrame rate mode                          : Variable\r\nFrame rate                               : 26.899 fps\r\nMinimum frame rate                       : 19.608 fps\r\nMaximum frame rate                       : 30.303 fps\r\nColor space                              : YUV\r\nChroma subsampling                       : 4:2:0\r\nBit depth                                : 8 bits\r\nScan type                                : Progressive\r\nBits/(Pixel*Frame)                       : 0.162\r\nStream size                              : 955 MiB (90%)\r\nWriting library                          : x264 core 142 r2479 dd79a61\r\nColor range                              : Limited\r\nColor primaries                          : BT.601 NTSC\r\nTransfer characteristics                 : BT.709\r\nMatrix coefficients                      : BT.601\r\nMenus                                    : 3\r\n\r\nAudio\r\nID                                       : 2\r\nFormat                                   : AAC\r\nFormat/Info                              : Advanced Audio Codec\r\nFormat profile                           : LC\r\nCodec ID                                 : 40\r\nDuration                                 : 1h 28mn\r\nBit rate mode                            : Variable\r\nBit rate                                 : 160 Kbps\r\nChannel(s)                               : 2 channels\r\nChannel positions                        : Front: L R\r\nSampling rate                            : 48.0 KHz\r\nFrame rate                               : 46.875 fps (1024 spf)\r\nCompression mode                         : Lossy\r\nStream size                              : 102 MiB (10%)\r\nTitle                                    : Stereo / Stereo\r\nLanguage                                 : English\r\nDefault                                  : Yes\r\nAlternate group                          : 1\r\nMenus                                    : 3\r\n\r\nMenu\r\nID                                       : 3\r\nCodec ID                                 : text\r\nDuration                                 : 1h 28mn\r\nLanguage                                 : English\r\nEncoded date                             : UTC 2036-02-06 06:28:16\r\nTagged date                              : UTC 2036-02-06 06:28:16\r\nMenu For                                 : 1,2\r\n00:00:00.000                             : Logos/Title/Robbery\r\n00:03:17.331                             : CAN'T KEEP CNTRY. BOY DWN\r\n00:06:54.014                             : No Frogs Allowed\r\n00:08:38.285                             : Playing Hooky With Huck\r\n00:11:48.591                             : Grade-School Crush\r\n00:16:57.750                             : Showing Off For Becky\r\n00:19:19.358                             : HOOK, LINE &amp; SINKER\r\n00:22:04.407                             : Tom's Painting Con Job\r\n00:26:44.520                             : Bone-Yard Adventure\r\n00:32:43.295                             : Oath Of Silence\r\n00:35:02.601                             : Framed For Murder\r\n00:36:45.837                             : Taking Becky's Blame\r\n00:40:09.474                             : ONE DREAM\r\n00:46:11.836                             : A Ham For A Mutt\r\n00:49:13.951                             : Chased By Big Bad Joe\r\n00:51:08.132                             : Raft Wrecked\r\n00:54:01.472                             : FRIENDS FOR LIFE\r\n00:58:07.601                             : Happy To Be Alive\r\n01:03:32.526                             : Saved From The Gallows\r\n01:06:12.302                             : Deadman's Cave\r\n01:10:31.995                             : LIGHT AT END OFTHE TUNNEL\r\n01:14:49.552                             : Setting A Bear Trap\r\n01:19:51.554                             : Happy Reunion\r\n01:23:18.460                             : End Credits\r\nBit rate mode                            : VBR","torrent":{"xt":"urn:btih:a74b37e5edc8eff94bcec853f4d4543982c70d58","amp;dn":"Tom+Sawyer+2000+ENG+DVDRIP","amp;tr":["udp%3A%2F%2Ftracker.leechers-paradise.org%3A6969","udp%3A%2F%2Fzer0day.ch%3A1337","udp%3A%2F%2Fopen.demonii.com%3A1337","udp%3A%2F%2Ftracker.coppersurfer.tk%3A6969","udp%3A%2F%2Fexodus.desync.com%3A6969"],"infoHash":"a74b37e5edc8eff94bcec853f4d4543982c70d58","infoHashBuffer":{"type":"Buffer","data":[167,75,55,229,237,200,239,249,75,206,200,83,244,212,84,57,130,199,13,88]},"announce":[],"urlList":[]}}